PathFileType	4	(X/Y/Z)	D:\TRACE\v60_Jaco2_6-2-23\JustArmDRS_Motion2_2-v60.trc
DataRate	CameraRate	NumFrames	NumMarkers	Units	OrigDataRate	OrigDataStartFrame	OrigNumFrames
100.00	100.00	      32	9	mm	100.00	1	      7005
Frame#	Time	front left toe			Front right toe			aft left toe			aft right toe			Arm			FL body			FR body			AL Body			AR Body			
		X1	Y1	Z1	X2	Y2	Z2	X3	Y3	Z3	X4	Y4	Z4	X5	Y5	Z5	X6	Y6	Z6	X7	Y7	Z7	X8	Y8	Z8	X9	Y9	Z9	

1	0.000	-201.02927	19.65058	-166.23575	206.71800	18.34528	-210.85619	-135.75352	17.40120	438.51791	268.05167	19.72078	426.77261	7.54001	1208.27844	-222.81372	-92.04763	579.38861	-315.91397	67.16925	579.36444	-332.89383	7.47392	583.28583	624.26630	164.15430	577.69257	608.47723	
2	0.010	-201.08698	19.65879	-166.24117	206.69882	18.29747	-210.84499	-135.79118	17.43613	438.51889	268.11545	19.74237	426.77853	7.53281	1208.27783	-222.80675	-92.03574	579.39532	-315.92242	67.18933	579.36688	-332.88193	7.46435	583.28162	624.26190	164.14326	577.70605	608.49457	
3	0.020	-201.10410	19.68206	-166.22180	206.67108	18.36102	-210.88710	-135.82124	17.42861	438.54446	268.02661	19.70060	426.76709	7.48880	1208.24060	-222.79709	-92.06090	579.40967	-315.90405	67.27449	579.35724	-332.87457	7.44334	583.27032	624.27710	164.16246	577.71356	608.48041	
4	0.030	-201.16833	19.66097	-166.20905	206.74545	18.36419	-210.86029	-135.78899	17.35918	438.53867	267.95868	19.67470	426.77078	7.42477	1208.26294	-222.81169	-92.10397	579.41919	-315.90170	67.18078	579.39508	-332.89609	7.45157	583.26178	624.26031	164.04939	577.72809	608.48492	
5	0.040	-201.19380	19.69785	-166.20978	206.75360	18.35865	-210.87415	-135.85915	17.40047	438.52698	267.94983	19.69358	426.76282	7.38559	1208.24878	-222.78772	-92.11938	579.40552	-315.92477	67.14457	579.40967	-332.88596	7.42805	583.27942	624.26489	164.06970	577.74658	608.46661	
6	0.050	-201.11177	19.66385	-166.24762	206.72282	18.31662	-210.88304	-135.87981	17.43874	438.50204	268.07208	19.71614	426.78265	7.35407	1208.27844	-222.77971	-92.16328	579.45135	-315.93301	67.13902	579.41333	-332.92935	7.41422	583.27002	624.27313	164.10617	577.74188	608.47046	
7	0.060	-201.15471	19.69438	-166.26546	206.68382	18.28057	-210.84981	-135.78679	17.38495	438.52905	268.06238	19.73047	426.73230	7.23741	1208.27869	-222.76009	-92.14650	579.43671	-315.90280	67.15221	579.44379	-332.91324	7.37822	583.27551	624.27625	164.02150	577.76056	608.46753	
8	0.070	-201.13063	19.69368	-166.24411	206.64575	18.30634	-210.86966	-135.84435	17.43497	438.50027	268.02075	19.70069	426.77960	7.09874	1208.34265	-222.89948	-92.17160	579.42462	-315.92285	67.03911	579.44183	-332.97812	7.38448	583.28387	624.25104	164.02098	577.76227	608.46655	
9	0.080	-201.13873	19.64038	-166.23225	206.72406	18.33935	-210.90041	-135.81126	17.38118	438.53000	268.02805	19.69993	426.77789	7.05177	1208.26587	-222.73473	-92.27233	579.42969	-315.94592	66.78664	579.41382	-332.46024	7.35878	583.27820	624.25415	163.98485	577.75854	608.46277	
10	0.090	-201.17586	19.67205	-166.22942	206.70453	18.33188	-210.89702	-135.90288	17.48712	438.52863	267.98868	19.70397	426.72412	6.97849	1208.28711	-222.75214	-92.32475	579.41132	-315.97882	66.75241	579.45276	-332.45758	7.33932	583.28137	624.26239	163.97775	577.77527	608.43335	
11	0.100	-201.20560	19.69325	-166.22350	206.64462	18.33806	-210.89978	-135.89278	17.50485	438.48450	267.98230	19.71391	426.77878	6.95460	1208.31116	-222.73830	-92.34373	579.38531	-315.97910	66.64927	579.45251	-332.51428	7.32433	583.30975	624.25360	163.90761	577.82550	608.46057	
12	0.110	-201.15654	19.67541	-166.25014	206.71556	18.34530	-210.90599	-135.92033	17.50768	438.47150	267.98151	19.73960	426.72302	6.84137	1208.33984	-222.76891	-92.39279	579.39368	-316.01666	66.91956	579.45782	-332.98785	7.33811	583.32367	624.25549	163.90083	577.85120	608.44965	
13	0.120	-201.20946	19.65351	-166.23322	206.65472	18.33031	-210.93187	-135.91980	17.52789	438.48145	267.94727	19.70633	426.74127	6.81414	1208.34033	-222.73534	-92.39252	579.39191	-316.00891	66.92088	579.46399	-332.97217	7.32019	583.32501	624.24438	163.87477	577.86072	608.42975	
14	0.130	-201.09160	19.63893	-166.22858	206.64481	18.32821	-210.94592	-135.90224	17.48941	438.49896	267.96786	19.72455	426.72974	6.75281	1208.31519	-222.74146	-92.39653	579.37482	-316.02417	66.95657	579.43396	-332.96381	7.30181	583.29675	624.25903	163.80148	577.86066	608.40796	
15	0.140	-201.19084	19.67558	-166.20935	206.67839	18.35274	-210.91753	-135.89151	17.45880	438.51553	267.96686	19.69785	426.72717	6.68601	1208.33191	-222.75397	-92.46039	579.38855	-316.04456	66.65377	579.37799	-332.50317	7.29093	583.31024	624.23096	163.80827	577.89996	608.42023	
16	0.150	-201.12804	19.61689	-166.23610	206.65239	18.32981	-210.91920	-135.90439	17.48960	438.46844	268.00601	19.74388	426.73944	6.67357	1208.32532	-222.73878	-92.47336	579.39716	-316.04291	66.85986	579.43781	-332.97638	7.31003	583.31592	624.21460	163.76459	577.85986	608.42090	
17	0.160	-201.07190	19.62968	-166.23965	206.68539	18.36906	-210.90862	-135.92662	17.47835	438.46957	268.03308	19.76178	426.73352	6.64464	1208.34131	-222.72844	-92.53603	579.42542	-316.03793	66.55875	579.46765	-332.55154	7.29234	583.30286	624.23346	163.80624	577.87146	608.42505	
18	0.170	-201.22931	19.64730	-166.23833	206.63359	18.32158	-210.93919	-135.93294	17.50671	438.50977	268.04242	19.71290	426.71262	6.58316	1208.31885	-222.73911	-92.56407	579.41254	-316.07303	66.79602	579.48523	-333.04355	7.30062	583.31189	624.21631	163.77306	577.90387	608.41797	
19	0.180	-201.14830	19.62602	-166.27100	206.69792	18.39226	-210.94374	-135.90163	17.51139	438.51260	267.94012	19.67710	426.73004	6.55512	1208.31104	-222.72087	-92.59614	579.40076	-316.09500	66.77923	579.48132	-333.00909	7.24157	583.28632	624.22247	163.72816	577.87939	608.41968	
20	0.190	-201.25865	19.69807	-166.23445	206.67126	18.36549	-210.93643	-135.90942	17.44395	438.50659	267.88943	19.66783	426.67685	6.53069	1208.32080	-222.71645	-92.59120	579.39081	-316.07376	66.76577	579.47614	-333.02576	7.25596	583.29010	624.22620	163.70454	577.91711	608.41107	
21	0.200	-201.22952	19.65463	-166.20418	206.62238	18.36470	-210.94608	-135.91655	17.46646	438.45346	267.93802	19.68256	426.73212	6.53443	1208.31140	-222.71750	-92.60152	579.37030	-316.09824	66.76967	579.46234	-333.04446	7.25458	583.29926	624.22125	163.69138	577.89832	608.41248	
22	0.210	-201.11620	19.62584	-166.23686	206.60846	18.33034	-210.94305	-135.90254	17.49456	438.47479	268.07416	19.73835	426.74081	6.53171	1208.32849	-222.70955	-92.62743	579.38190	-316.10535	66.80365	579.47595	-333.02328	7.26457	583.32745	624.22675	163.75314	577.91205	608.39429	
23	0.220	-201.19075	19.64037	-166.23727	206.62959	18.34580	-210.95618	-135.94128	17.48657	438.49216	268.00665	19.71389	426.71097	6.47923	1208.32214	-222.73001	-92.65317	579.40503	-316.09744	66.48198	579.40265	-332.56448	7.25028	583.31335	624.21307	163.74236	577.96356	608.41473	
24	0.230	-201.15422	19.61875	-166.21997	206.67401	18.39494	-210.91092	-135.91986	17.48023	438.49472	268.01590	19.70676	426.68979	6.47916	1208.31519	-222.70041	-92.66761	579.44153	-316.10889	66.43793	579.47711	-332.60580	7.26532	583.30725	624.20844	163.77216	577.95282	608.39117	
25	0.240	-201.20399	19.62469	-166.24931	206.66791	18.35097	-210.93535	-135.92880	17.47274	438.48938	268.01114	19.68830	426.71542	6.43075	1208.35229	-222.72287	-92.68150	579.39771	-316.14828	66.63629	579.47864	-333.07510	7.22252	583.31378	624.20483	163.68271	577.92236	608.39337	
26	0.250	-201.25844	19.67193	-166.19797	206.71021	18.38866	-210.89560	-135.98618	17.53347	438.49149	267.93591	19.69279	426.72263	6.44001	1208.32251	-222.72621	-92.74572	579.42096	-316.17429	66.66619	579.47931	-333.06918	7.24332	583.32849	624.20190	163.69536	577.95459	608.38269	
27	0.260	-201.18585	19.64077	-166.21085	206.63040	18.40711	-210.94238	-135.96266	17.49142	438.49631	268.03760	19.76064	426.72345	6.41520	1208.35522	-222.72067	-92.70668	579.41644	-316.14166	66.66597	579.47992	-333.09137	7.26763	583.34424	624.21185	163.65732	577.97656	608.35803	
28	0.270	-201.21483	19.66454	-166.20392	206.70572	18.38538	-210.92400	-135.96643	17.56072	438.47540	267.98987	19.73636	426.70251	6.41799	1208.38635	-222.72900	-92.72051	579.44043	-316.13202	66.58790	579.53217	-333.08673	7.25782	583.33685	624.21161	163.67419	578.01379	608.35559	
29	0.280	-201.18582	19.67706	-166.23721	206.61411	18.34485	-210.94862	-135.99170	17.57310	438.44754	268.03644	19.74858	426.69977	6.37716	1208.35364	-222.73509	-92.73398	579.41882	-316.12411	66.58781	579.49957	-333.09796	7.25646	583.34631	624.19073	163.64055	578.04529	608.34912	
30	0.290	-201.17812	19.62523	-166.25482	206.65323	18.37307	-210.93089	-135.98552	17.53087	438.45117	268.01489	19.72284	426.71405	6.36771	1208.35803	-222.74733	-92.72681	579.43353	-316.14264	66.61087	579.51929	-333.08224	7.24985	583.32068	624.21936	163.75542	578.02197	608.34686	
31	0.300	-201.25482	19.66548	-166.23315	206.63182	18.38675	-210.94684	-135.99553	17.47918	438.47116	267.95926	19.69327	426.72113	6.34753	1208.37073	-222.75555	-92.72156	579.42303	-316.12051	66.55243	579.53607	-333.11438	7.21129	583.32178	624.20697	163.66100	578.00073	608.35699	
32	0.310	-201.15736	19.63125	-166.22050	206.68802	18.42729	-210.94308	-135.99591	17.53156	438.47516	267.98819	19.73594	426.66605	6.36734	1208.34875	-222.73004	-92.81154	579.46698	-316.15924	66.55611	579.53589	-333.09503	7.25360	583.31958	624.18671	163.74641	578.00513	608.35474	
